<?xml version="1.0" encoding="UTF-8" standalone="no"?>
<!DOCTYPE svg PUBLIC "-//W3C//DTD SVG 1.1//EN"
 "http://www.w3.org/Graphics/SVG/1.1/DTD/svg11.dtd">
<!-- Generated by graphviz version 2.40.1 (20161225.0304)
 -->
<!-- Title: controllers_diagram Pages: 1 -->
<svg width="732pt" height="591pt"
 viewBox="0.00 0.00 732.00 591.00" xmlns="http://www.w3.org/2000/svg" xmlns:xlink="http://www.w3.org/1999/xlink">
<g id="graph0" class="graph" transform="scale(1 1) rotate(0) translate(4 587)">
<title>controllers_diagram</title>
<polygon fill="transparent" stroke="transparent" points="-4,4 -4,-587 728,-587 728,4 -4,4"/>
<!-- _diagram_info -->
<g id="node1" class="node">
<title>_diagram_info</title>
<text text-anchor="start" x="518" y="-386.6" font-family="Times,serif" font-size="13.00" fill="#000000">Controllers diagram</text>
<text text-anchor="start" x="518" y="-372.6" font-family="Times,serif" font-size="13.00" fill="#000000">Date: Mar 19 2019 &#45; 19:26</text>
<text text-anchor="start" x="518" y="-358.6" font-family="Times,serif" font-size="13.00" fill="#000000">Migration version: 20190317235601</text>
<text text-anchor="start" x="518" y="-344.6" font-family="Times,serif" font-size="13.00" fill="#000000">Generated by RailRoady 1.5.3</text>
<text text-anchor="start" x="518" y="-330.6" font-family="Times,serif" font-size="13.00" fill="#000000">http://railroady.prestonlee.com</text>
</g>
<!-- InShoppingCartsController -->
<g id="node2" class="node">
<title>InShoppingCartsController</title>
<path fill="none" stroke="#000000" d="M522,-442.5C522,-442.5 662,-442.5 662,-442.5 668,-442.5 674,-448.5 674,-454.5 674,-454.5 674,-553.5 674,-553.5 674,-559.5 668,-565.5 662,-565.5 662,-565.5 522,-565.5 522,-565.5 516,-565.5 510,-559.5 510,-553.5 510,-553.5 510,-454.5 510,-454.5 510,-448.5 516,-442.5 522,-442.5"/>
<text text-anchor="middle" x="592" y="-550.3" font-family="Times,serif" font-size="14.00" fill="#000000">InShoppingCartsController</text>
<polyline fill="none" stroke="#000000" points="510,-542.5 674,-542.5 "/>
<text text-anchor="start" x="518" y="-527.3" font-family="Times,serif" font-size="14.00" fill="#000000">create</text>
<text text-anchor="start" x="518" y="-512.3" font-family="Times,serif" font-size="14.00" fill="#000000">destroy</text>
<text text-anchor="start" x="518" y="-497.3" font-family="Times,serif" font-size="14.00" fill="#000000">update</text>
<polyline fill="none" stroke="#000000" points="510,-489.5 674,-489.5 "/>
<polyline fill="none" stroke="#000000" points="510,-465.5 674,-465.5 "/>
<text text-anchor="start" x="518" y="-450.3" font-family="Times,serif" font-size="14.00" fill="#000000">_layout</text>
</g>
<!-- HomeController -->
<g id="node3" class="node">
<title>HomeController</title>
<path fill="none" stroke="#000000" d="M267,-.5C267,-.5 349,-.5 349,-.5 355,-.5 361,-6.5 361,-12.5 361,-12.5 361,-111.5 361,-111.5 361,-117.5 355,-123.5 349,-123.5 349,-123.5 267,-123.5 267,-123.5 261,-123.5 255,-117.5 255,-111.5 255,-111.5 255,-12.5 255,-12.5 255,-6.5 261,-.5 267,-.5"/>
<text text-anchor="middle" x="308" y="-108.3" font-family="Times,serif" font-size="14.00" fill="#000000">HomeController</text>
<polyline fill="none" stroke="#000000" points="255,-100.5 361,-100.5 "/>
<text text-anchor="start" x="263" y="-85.3" font-family="Times,serif" font-size="14.00" fill="#000000">about</text>
<text text-anchor="start" x="263" y="-70.3" font-family="Times,serif" font-size="14.00" fill="#000000">success</text>
<text text-anchor="start" x="263" y="-55.3" font-family="Times,serif" font-size="14.00" fill="#000000">terms</text>
<polyline fill="none" stroke="#000000" points="255,-47.5 361,-47.5 "/>
<polyline fill="none" stroke="#000000" points="255,-23.5 361,-23.5 "/>
<text text-anchor="start" x="263" y="-8.3" font-family="Times,serif" font-size="14.00" fill="#000000">_layout</text>
</g>
<!-- CategoriesController -->
<g id="node4" class="node">
<title>CategoriesController</title>
<path fill="none" stroke="#000000" d="M352,-323.5C352,-323.5 458,-323.5 458,-323.5 464,-323.5 470,-329.5 470,-335.5 470,-335.5 470,-524.5 470,-524.5 470,-530.5 464,-536.5 458,-536.5 458,-536.5 352,-536.5 352,-536.5 346,-536.5 340,-530.5 340,-524.5 340,-524.5 340,-335.5 340,-335.5 340,-329.5 346,-323.5 352,-323.5"/>
<text text-anchor="middle" x="405" y="-521.3" font-family="Times,serif" font-size="14.00" fill="#000000">CategoriesController</text>
<polyline fill="none" stroke="#000000" points="340,-513.5 470,-513.5 "/>
<text text-anchor="start" x="348" y="-498.3" font-family="Times,serif" font-size="14.00" fill="#000000">create</text>
<text text-anchor="start" x="348" y="-483.3" font-family="Times,serif" font-size="14.00" fill="#000000">destroy</text>
<text text-anchor="start" x="348" y="-468.3" font-family="Times,serif" font-size="14.00" fill="#000000">edit</text>
<text text-anchor="start" x="348" y="-453.3" font-family="Times,serif" font-size="14.00" fill="#000000">index</text>
<text text-anchor="start" x="348" y="-438.3" font-family="Times,serif" font-size="14.00" fill="#000000">new</text>
<text text-anchor="start" x="348" y="-423.3" font-family="Times,serif" font-size="14.00" fill="#000000">show</text>
<text text-anchor="start" x="348" y="-408.3" font-family="Times,serif" font-size="14.00" fill="#000000">update</text>
<polyline fill="none" stroke="#000000" points="340,-400.5 470,-400.5 "/>
<polyline fill="none" stroke="#000000" points="340,-376.5 470,-376.5 "/>
<text text-anchor="start" x="348" y="-361.3" font-family="Times,serif" font-size="14.00" fill="#000000">_layout</text>
<text text-anchor="start" x="348" y="-346.3" font-family="Times,serif" font-size="14.00" fill="#000000">category_params</text>
<text text-anchor="start" x="348" y="-331.3" font-family="Times,serif" font-size="14.00" fill="#000000">set_category</text>
</g>
<!-- ApplicationController -->
<g id="node5" class="node">
<title>ApplicationController</title>
<path fill="none" stroke="#000000" d="M46,-17.5C46,-17.5 216,-17.5 216,-17.5 222,-17.5 228,-23.5 228,-29.5 228,-29.5 228,-113.5 228,-113.5 228,-119.5 222,-125.5 216,-125.5 216,-125.5 46,-125.5 46,-125.5 40,-125.5 34,-119.5 34,-113.5 34,-113.5 34,-29.5 34,-29.5 34,-23.5 40,-17.5 46,-17.5"/>
<text text-anchor="middle" x="131" y="-110.3" font-family="Times,serif" font-size="14.00" fill="#000000">ApplicationController</text>
<polyline fill="none" stroke="#000000" points="34,-102.5 228,-102.5 "/>
<polyline fill="none" stroke="#000000" points="34,-78.5 228,-78.5 "/>
<text text-anchor="start" x="42" y="-63.3" font-family="Times,serif" font-size="14.00" fill="#000000">configure_permitted_parameters</text>
<polyline fill="none" stroke="#000000" points="34,-55.5 228,-55.5 "/>
<text text-anchor="start" x="42" y="-40.3" font-family="Times,serif" font-size="14.00" fill="#000000">_layout</text>
<text text-anchor="start" x="42" y="-25.3" font-family="Times,serif" font-size="14.00" fill="#000000">set_shopping_cart</text>
</g>
<!-- ProductsController -->
<g id="node6" class="node">
<title>ProductsController</title>
<path fill="none" stroke="#000000" d="M199,-323.5C199,-323.5 294,-323.5 294,-323.5 300,-323.5 306,-329.5 306,-335.5 306,-335.5 306,-539.5 306,-539.5 306,-545.5 300,-551.5 294,-551.5 294,-551.5 199,-551.5 199,-551.5 193,-551.5 187,-545.5 187,-539.5 187,-539.5 187,-335.5 187,-335.5 187,-329.5 193,-323.5 199,-323.5"/>
<text text-anchor="middle" x="246.5" y="-536.3" font-family="Times,serif" font-size="14.00" fill="#000000">ProductsController</text>
<polyline fill="none" stroke="#000000" points="187,-528.5 306,-528.5 "/>
<text text-anchor="start" x="195" y="-513.3" font-family="Times,serif" font-size="14.00" fill="#000000">create</text>
<text text-anchor="start" x="195" y="-498.3" font-family="Times,serif" font-size="14.00" fill="#000000">destroy</text>
<text text-anchor="start" x="195" y="-483.3" font-family="Times,serif" font-size="14.00" fill="#000000">edit</text>
<text text-anchor="start" x="195" y="-468.3" font-family="Times,serif" font-size="14.00" fill="#000000">index</text>
<text text-anchor="start" x="195" y="-453.3" font-family="Times,serif" font-size="14.00" fill="#000000">new</text>
<text text-anchor="start" x="195" y="-438.3" font-family="Times,serif" font-size="14.00" fill="#000000">show</text>
<text text-anchor="start" x="195" y="-423.3" font-family="Times,serif" font-size="14.00" fill="#000000">update</text>
<polyline fill="none" stroke="#000000" points="187,-415.5 306,-415.5 "/>
<polyline fill="none" stroke="#000000" points="187,-391.5 306,-391.5 "/>
<text text-anchor="start" x="195" y="-376.3" font-family="Times,serif" font-size="14.00" fill="#000000">_layout</text>
<text text-anchor="start" x="195" y="-361.3" font-family="Times,serif" font-size="14.00" fill="#000000">product_params</text>
<text text-anchor="start" x="195" y="-346.3" font-family="Times,serif" font-size="14.00" fill="#000000">set_categories</text>
<text text-anchor="start" x="195" y="-331.3" font-family="Times,serif" font-size="14.00" fill="#000000">set_product</text>
</g>
<!-- ShoppingCartsController -->
<g id="node7" class="node">
<title>ShoppingCartsController</title>
<path fill="none" stroke="#000000" d="M12,-340.5C12,-340.5 140,-340.5 140,-340.5 146,-340.5 152,-346.5 152,-352.5 152,-352.5 152,-421.5 152,-421.5 152,-427.5 146,-433.5 140,-433.5 140,-433.5 12,-433.5 12,-433.5 6,-433.5 0,-427.5 0,-421.5 0,-421.5 0,-352.5 0,-352.5 0,-346.5 6,-340.5 12,-340.5"/>
<text text-anchor="middle" x="76" y="-418.3" font-family="Times,serif" font-size="14.00" fill="#000000">ShoppingCartsController</text>
<polyline fill="none" stroke="#000000" points="0,-410.5 152,-410.5 "/>
<text text-anchor="start" x="8" y="-395.3" font-family="Times,serif" font-size="14.00" fill="#000000">show</text>
<polyline fill="none" stroke="#000000" points="0,-387.5 152,-387.5 "/>
<polyline fill="none" stroke="#000000" points="0,-363.5 152,-363.5 "/>
<text text-anchor="start" x="8" y="-348.3" font-family="Times,serif" font-size="14.00" fill="#000000">_layout</text>
</g>
<!-- PaymentsController -->
<g id="node8" class="node">
<title>PaymentsController</title>
<path fill="none" stroke="#000000" d="M46,-459.5C46,-459.5 147,-459.5 147,-459.5 153,-459.5 159,-465.5 159,-471.5 159,-471.5 159,-570.5 159,-570.5 159,-576.5 153,-582.5 147,-582.5 147,-582.5 46,-582.5 46,-582.5 40,-582.5 34,-576.5 34,-570.5 34,-570.5 34,-471.5 34,-471.5 34,-465.5 40,-459.5 46,-459.5"/>
<text text-anchor="middle" x="96.5" y="-567.3" font-family="Times,serif" font-size="14.00" fill="#000000">PaymentsController</text>
<polyline fill="none" stroke="#000000" points="34,-559.5 159,-559.5 "/>
<text text-anchor="start" x="42" y="-544.3" font-family="Times,serif" font-size="14.00" fill="#000000">checkout</text>
<text text-anchor="start" x="42" y="-529.3" font-family="Times,serif" font-size="14.00" fill="#000000">create</text>
<text text-anchor="start" x="42" y="-514.3" font-family="Times,serif" font-size="14.00" fill="#000000">process_card</text>
<polyline fill="none" stroke="#000000" points="34,-506.5 159,-506.5 "/>
<polyline fill="none" stroke="#000000" points="34,-482.5 159,-482.5 "/>
<text text-anchor="start" x="42" y="-467.3" font-family="Times,serif" font-size="14.00" fill="#000000">_layout</text>
</g>
<!-- Users::OmniauthCallbacksController -->
<g id="node9" class="node">
<title>Users::OmniauthCallbacksController</title>
<path fill="none" stroke="#000000" d="M148,-153.5C148,-153.5 342,-153.5 342,-153.5 348,-153.5 354,-159.5 354,-165.5 354,-165.5 354,-279.5 354,-279.5 354,-285.5 348,-291.5 342,-291.5 342,-291.5 148,-291.5 148,-291.5 142,-291.5 136,-285.5 136,-279.5 136,-279.5 136,-165.5 136,-165.5 136,-159.5 142,-153.5 148,-153.5"/>
<text text-anchor="middle" x="245" y="-276.3" font-family="Times,serif" font-size="14.00" fill="#000000">Users::OmniauthCallbacksController</text>
<polyline fill="none" stroke="#000000" points="136,-268.5 354,-268.5 "/>
<text text-anchor="start" x="144" y="-253.3" font-family="Times,serif" font-size="14.00" fill="#000000">custom_sign_up</text>
<text text-anchor="start" x="144" y="-238.3" font-family="Times,serif" font-size="14.00" fill="#000000">facebook</text>
<text text-anchor="start" x="144" y="-223.3" font-family="Times,serif" font-size="14.00" fill="#000000">failure</text>
<polyline fill="none" stroke="#000000" points="136,-215.5 354,-215.5 "/>
<polyline fill="none" stroke="#000000" points="136,-191.5 354,-191.5 "/>
<text text-anchor="start" x="144" y="-176.3" font-family="Times,serif" font-size="14.00" fill="#000000">_layout</text>
<text text-anchor="start" x="144" y="-161.3" font-family="Times,serif" font-size="14.00" fill="#000000">user_params</text>
</g>
<!-- EventsController -->
<g id="node10" class="node">
<title>EventsController</title>
<path fill="none" stroke="#000000" d="M403,-68.5C403,-68.5 488,-68.5 488,-68.5 494,-68.5 500,-74.5 500,-80.5 500,-80.5 500,-284.5 500,-284.5 500,-290.5 494,-296.5 488,-296.5 488,-296.5 403,-296.5 403,-296.5 397,-296.5 391,-290.5 391,-284.5 391,-284.5 391,-80.5 391,-80.5 391,-74.5 397,-68.5 403,-68.5"/>
<text text-anchor="middle" x="445.5" y="-281.3" font-family="Times,serif" font-size="14.00" fill="#000000">EventsController</text>
<polyline fill="none" stroke="#000000" points="391,-273.5 500,-273.5 "/>
<text text-anchor="start" x="399" y="-258.3" font-family="Times,serif" font-size="14.00" fill="#000000">attend</text>
<text text-anchor="start" x="399" y="-243.3" font-family="Times,serif" font-size="14.00" fill="#000000">create</text>
<text text-anchor="start" x="399" y="-228.3" font-family="Times,serif" font-size="14.00" fill="#000000">destroy</text>
<text text-anchor="start" x="399" y="-213.3" font-family="Times,serif" font-size="14.00" fill="#000000">edit</text>
<text text-anchor="start" x="399" y="-198.3" font-family="Times,serif" font-size="14.00" fill="#000000">index</text>
<text text-anchor="start" x="399" y="-183.3" font-family="Times,serif" font-size="14.00" fill="#000000">new</text>
<text text-anchor="start" x="399" y="-168.3" font-family="Times,serif" font-size="14.00" fill="#000000">show</text>
<text text-anchor="start" x="399" y="-153.3" font-family="Times,serif" font-size="14.00" fill="#000000">update</text>
<polyline fill="none" stroke="#000000" points="391,-145.5 500,-145.5 "/>
<polyline fill="none" stroke="#000000" points="391,-121.5 500,-121.5 "/>
<text text-anchor="start" x="399" y="-106.3" font-family="Times,serif" font-size="14.00" fill="#000000">_layout</text>
<text text-anchor="start" x="399" y="-91.3" font-family="Times,serif" font-size="14.00" fill="#000000">event_params</text>
<text text-anchor="start" x="399" y="-76.3" font-family="Times,serif" font-size="14.00" fill="#000000">set_event</text>
</g>
</g>
</svg>
