<?xml version="1.0" encoding="UTF-8" standalone="no"?>
<!DOCTYPE svg PUBLIC "-//W3C//DTD SVG 1.1//EN"
 "http://www.w3.org/Graphics/SVG/1.1/DTD/svg11.dtd">
<!-- Generated by graphviz version 2.40.1 (20161225.0304)
 -->
<!-- Title: models_diagram Pages: 1 -->
<svg width="865pt" height="230pt"
 viewBox="0.00 0.00 864.90 230.00" xmlns="http://www.w3.org/2000/svg" xmlns:xlink="http://www.w3.org/1999/xlink">
<g id="graph0" class="graph" transform="scale(1 1) rotate(0) translate(4 226)">
<title>models_diagram</title>
<polygon fill="transparent" stroke="transparent" points="-4,4 -4,-226 860.8962,-226 860.8962,4 -4,4"/>
<!-- _diagram_info -->
<g id="node1" class="node">
<title>_diagram_info</title>
<text text-anchor="start" x="8" y="-207.6" font-family="Times,serif" font-size="13.00" fill="#000000">Models diagram</text>
<text text-anchor="start" x="8" y="-193.6" font-family="Times,serif" font-size="13.00" fill="#000000">Date: Mar 19 2019 &#45; 19:26</text>
<text text-anchor="start" x="8" y="-179.6" font-family="Times,serif" font-size="13.00" fill="#000000">Migration version: 20190317235601</text>
<text text-anchor="start" x="8" y="-165.6" font-family="Times,serif" font-size="13.00" fill="#000000">Generated by RailRoady 1.5.3</text>
<text text-anchor="start" x="8" y="-151.6" font-family="Times,serif" font-size="13.00" fill="#000000">http://railroady.prestonlee.com</text>
</g>
<!-- Event -->
<g id="node2" class="node">
<title>Event</title>
<ellipse fill="none" stroke="#000000" cx="217" cy="-90" rx="31.3957" ry="18"/>
<text text-anchor="middle" x="217" y="-86.3" font-family="Times,serif" font-size="14.00" fill="#000000">Event</text>
</g>
<!-- Administrator -->
<g id="node3" class="node">
<title>Administrator</title>
<ellipse fill="none" stroke="#000000" cx="365" cy="-183" rx="60.3893" ry="18"/>
<text text-anchor="middle" x="365" y="-179.3" font-family="Times,serif" font-size="14.00" fill="#000000">Administrator</text>
</g>
<!-- Stores::Paypal -->
<g id="node4" class="node">
<title>Stores::Paypal</title>
<polygon fill="none" stroke="#000000" points="538.5,-201 443.5,-201 443.5,-165 538.5,-165 538.5,-201"/>
<text text-anchor="middle" x="491" y="-179.3" font-family="Times,serif" font-size="14.00" fill="#000000">Stores::Paypal</text>
</g>
<!-- User -->
<g id="node5" class="node">
<title>User</title>
<ellipse fill="none" stroke="#000000" cx="259" cy="-183" rx="27.0966" ry="18"/>
<text text-anchor="middle" x="259" y="-179.3" font-family="Times,serif" font-size="14.00" fill="#000000">User</text>
</g>
<!-- User&#45;&gt;Event -->
<g id="edge2" class="edge">
<title>User&#45;&gt;Event</title>
<path fill="none" stroke="#037888" d="M246.9644,-156.3497C241.4048,-144.0391 234.8132,-129.4435 229.2298,-117.0804"/>
<polygon fill="#037888" stroke="#037888" points="246.9842,-156.3937 246.9989,-167.3596 249.0422,-160.9506 251.1001,-165.5074 251.1001,-165.5074 251.1001,-165.5074 249.0422,-160.9506 255.2013,-163.6552 246.9842,-156.3937 246.9842,-156.3937"/>
<polygon fill="#037888" stroke="#037888" points="229.1232,-116.8441 229.1084,-105.8782 227.0652,-112.2872 225.0073,-107.7303 225.0073,-107.7303 225.0073,-107.7303 227.0652,-112.2872 220.9061,-109.5825 229.1232,-116.8441 229.1232,-116.8441"/>
</g>
<!-- Attend -->
<g id="node9" class="node">
<title>Attend</title>
<ellipse fill="none" stroke="#000000" cx="301" cy="-90" rx="34.394" ry="18"/>
<text text-anchor="middle" x="301" y="-86.3" font-family="Times,serif" font-size="14.00" fill="#000000">Attend</text>
</g>
<!-- User&#45;&gt;Attend -->
<g id="edge1" class="edge">
<title>User&#45;&gt;Attend</title>
<path fill="none" stroke="#338230" d="M270.2453,-158.0998C275.9635,-145.438 282.9223,-130.0292 288.7733,-117.0734"/>
<ellipse fill="none" stroke="#338230" cx="268.5463" cy="-161.8619" rx="4" ry="4"/>
<polygon fill="#338230" stroke="#338230" points="288.8768,-116.8441 297.0939,-109.5825 290.9348,-112.2872 292.9927,-107.7303 292.9927,-107.7303 292.9927,-107.7303 290.9348,-112.2872 288.8916,-105.8782 288.8768,-116.8441 288.8768,-116.8441"/>
</g>
<!-- InShoppingCart -->
<g id="node6" class="node">
<title>InShoppingCart</title>
<ellipse fill="none" stroke="#000000" cx="521" cy="-90" rx="66.8882" ry="18"/>
<text text-anchor="middle" x="521" y="-86.3" font-family="Times,serif" font-size="14.00" fill="#000000">InShoppingCart</text>
</g>
<!-- Category -->
<g id="node7" class="node">
<title>Category</title>
<ellipse fill="none" stroke="#000000" cx="814" cy="-90" rx="42.7926" ry="18"/>
<text text-anchor="middle" x="814" y="-86.3" font-family="Times,serif" font-size="14.00" fill="#000000">Category</text>
</g>
<!-- Product -->
<g id="node10" class="node">
<title>Product</title>
<ellipse fill="none" stroke="#000000" cx="699" cy="-18" rx="38.1938" ry="18"/>
<text text-anchor="middle" x="699" y="-14.3" font-family="Times,serif" font-size="14.00" fill="#000000">Product</text>
</g>
<!-- Category&#45;&gt;Product -->
<g id="edge3" class="edge">
<title>Category&#45;&gt;Product</title>
<path fill="none" stroke="#a8d3b6" d="M783.0945,-70.6505C766.9551,-60.5458 747.2307,-48.1966 730.9417,-37.9983"/>
<ellipse fill="none" stroke="#a8d3b6" cx="786.5019" cy="-72.7838" rx="4" ry="4"/>
<polygon fill="#a8d3b6" stroke="#a8d3b6" points="730.7662,-37.8884 724.6784,-28.7677 726.5283,-35.2351 722.2904,-32.5818 722.2904,-32.5818 722.2904,-32.5818 726.5283,-35.2351 719.9024,-36.3959 730.7662,-37.8884 730.7662,-37.8884"/>
</g>
<!-- ApplicationRecord -->
<g id="node8" class="node">
<title>ApplicationRecord</title>
<ellipse fill="none" stroke="#000000" cx="771" cy="-183" rx="77.1866" ry="18"/>
<text text-anchor="middle" x="771" y="-179.3" font-family="Times,serif" font-size="14.00" fill="#000000">ApplicationRecord</text>
</g>
<!-- ShoppingCart -->
<g id="node11" class="node">
<title>ShoppingCart</title>
<ellipse fill="none" stroke="#000000" cx="616" cy="-183" rx="59.5901" ry="18"/>
<text text-anchor="middle" x="616" y="-179.3" font-family="Times,serif" font-size="14.00" fill="#000000">ShoppingCart</text>
</g>
<!-- ShoppingCart&#45;&gt;InShoppingCart -->
<g id="edge4" class="edge">
<title>ShoppingCart&#45;&gt;InShoppingCart</title>
<path fill="none" stroke="#0d04de" d="M592.2782,-159.7776C578.2831,-146.0772 560.5769,-128.7438 546.3133,-114.7804"/>
<ellipse fill="none" stroke="#0d04de" cx="595.2729" cy="-162.7092" rx="4" ry="4"/>
<polygon fill="#0d04de" stroke="#0d04de" points="545.9346,-114.4096 541.9366,-104.1985 542.3616,-110.9119 538.7886,-107.4142 538.7886,-107.4142 538.7886,-107.4142 542.3616,-110.9119 535.6407,-110.6298 545.9346,-114.4096 545.9346,-114.4096"/>
</g>
<!-- ShoppingCart&#45;&gt;Product -->
<g id="edge5" class="edge">
<title>ShoppingCart&#45;&gt;Product</title>
<path fill="none" stroke="#9f463a" d="M615.5831,-154.7709C616.4139,-131.1985 620.4326,-97.4581 635,-72 642.6111,-58.6988 654.8058,-47.1956 666.5187,-38.2651"/>
<polygon fill="#9f463a" stroke="#9f463a" points="615.5822,-154.8213 610.8999,-164.7373 615.4907,-159.8205 615.3992,-164.8196 615.3992,-164.8196 615.3992,-164.8196 615.4907,-159.8205 619.8984,-164.902 615.5822,-154.8213 615.5822,-154.8213"/>
<polygon fill="#9f463a" stroke="#9f463a" points="666.7791,-38.0773 677.5222,-35.8779 670.8346,-35.1527 674.89,-32.228 674.89,-32.228 674.89,-32.228 670.8346,-35.1527 672.2578,-28.5781 666.7791,-38.0773 666.7791,-38.0773"/>
</g>
<!-- MyPayment -->
<g id="node12" class="node">
<title>MyPayment</title>
<ellipse fill="none" stroke="#000000" cx="699" cy="-90" rx="54.6905" ry="18"/>
<text text-anchor="middle" x="699" y="-86.3" font-family="Times,serif" font-size="14.00" fill="#000000">MyPayment</text>
</g>
<!-- ShoppingCart&#45;&gt;MyPayment -->
<g id="edge6" class="edge">
<title>ShoppingCart&#45;&gt;MyPayment</title>
<path fill="none" stroke="#cdf089" d="M637.1077,-159.3492C649.1811,-145.8212 664.3188,-128.8597 676.6013,-115.0974"/>
<ellipse fill="none" stroke="#cdf089" cx="634.2751" cy="-162.5231" rx="4" ry="4"/>
<polygon fill="#cdf089" stroke="#cdf089" points="676.7997,-114.875 686.8157,-110.4105 680.129,-111.1446 683.4583,-107.4142 683.4583,-107.4142 683.4583,-107.4142 680.129,-111.1446 680.101,-104.4178 676.7997,-114.875 676.7997,-114.875"/>
</g>
<!-- MyPayment&#45;&gt;Product -->
<g id="edge7" class="edge">
<title>MyPayment&#45;&gt;Product</title>
<path fill="none" stroke="#93bc4c" d="M699,-61.5726C699,-56.6792 699,-51.5904 699,-46.6901"/>
<polygon fill="#93bc4c" stroke="#93bc4c" points="699.0001,-61.8314 694.5,-71.8313 699,-66.8314 699,-71.8314 699,-71.8314 699,-71.8314 699,-66.8314 703.5,-71.8314 699.0001,-61.8314 699.0001,-61.8314"/>
<polygon fill="#93bc4c" stroke="#93bc4c" points="699.0001,-46.4133 703.5,-36.4132 699,-41.4133 699,-36.4133 699,-36.4133 699,-36.4133 699,-41.4133 694.5,-36.4133 699.0001,-46.4133 699.0001,-46.4133"/>
</g>
</g>
</svg>
