<?xml version="1.0" encoding="UTF-8" standalone="no"?>
<!DOCTYPE svg PUBLIC "-//W3C//DTD SVG 1.1//EN"
 "http://www.w3.org/Graphics/SVG/1.1/DTD/svg11.dtd">
<!-- Generated by graphviz version 2.40.1 (20161225.0304)
 -->
<!-- Title: models_diagram Pages: 1 -->
<svg width="1700pt" height="611pt"
 viewBox="0.00 0.00 1700.00 611.00" xmlns="http://www.w3.org/2000/svg" xmlns:xlink="http://www.w3.org/1999/xlink">
<g id="graph0" class="graph" transform="scale(1 1) rotate(0) translate(4 607)">
<title>models_diagram</title>
<polygon fill="transparent" stroke="transparent" points="-4,4 -4,-607 1696,-607 1696,4 -4,4"/>
<!-- _diagram_info -->
<!-- <g id="node1" class="node">
<title>_diagram_info</title>
<text text-anchor="start" x="8" y="-521.6" font-family="Times,serif" font-size="13.00" fill="#000000">Models diagram</text>
<text text-anchor="start" x="8" y="-507.6" font-family="Times,serif" font-size="13.00" fill="#000000">Date: Mar 19 2019 &#45; 19:26</text>
<text text-anchor="start" x="8" y="-493.6" font-family="Times,serif" font-size="13.00" fill="#000000">Migration version: 20190317235601</text>
<text text-anchor="start" x="8" y="-479.6" font-family="Times,serif" font-size="13.00" fill="#000000">Generated by RailRoady 1.5.3</text>
<text text-anchor="start" x="8" y="-465.6" font-family="Times,serif" font-size="13.00" fill="#000000">http://railroady.prestonlee.com</text>
</g> -->
<!-- Event -->
<g id="node2" class="node">
<title>Event</title>
<path fill="none" stroke="#000000" d="M148,-188.5C148,-188.5 368,-188.5 368,-188.5 374,-188.5 380,-194.5 380,-200.5 380,-200.5 380,-327.5 380,-327.5 380,-333.5 374,-339.5 368,-339.5 368,-339.5 148,-339.5 148,-339.5 142,-339.5 136,-333.5 136,-327.5 136,-327.5 136,-200.5 136,-200.5 136,-194.5 142,-188.5 148,-188.5"/>
<text text-anchor="middle" x="258" y="-324.3" font-family="Times,serif" font-size="14.00" fill="#000000">Event</text>
<polyline fill="none" stroke="#000000" points="136,-316.5 380,-316.5 "/>
<text text-anchor="start" x="144" y="-301.3" font-family="Times,serif" font-size="14.00" fill="#000000">id :bigint</text>
<text text-anchor="start" x="144" y="-286.3" font-family="Times,serif" font-size="14.00" fill="#000000">name :character varying</text>
<text text-anchor="start" x="144" y="-271.3" font-family="Times,serif" font-size="14.00" fill="#000000">details :text</text>
<text text-anchor="start" x="144" y="-256.3" font-family="Times,serif" font-size="14.00" fill="#000000">starts_at :timestamp without time zone</text>
<text text-anchor="start" x="144" y="-241.3" font-family="Times,serif" font-size="14.00" fill="#000000">ends_at :timestamp without time zone</text>
<text text-anchor="start" x="144" y="-226.3" font-family="Times,serif" font-size="14.00" fill="#000000">location :character varying</text>
<text text-anchor="start" x="144" y="-211.3" font-family="Times,serif" font-size="14.00" fill="#000000">created_at :timestamp without time zone</text>
<text text-anchor="start" x="144" y="-196.3" font-family="Times,serif" font-size="14.00" fill="#000000">updated_at :timestamp without time zone</text>
</g>
<!-- Administrator -->
<g id="node3" class="node">
<title>Administrator</title>
<path fill="none" stroke="#000000" d="M576,-414C576,-414 892,-414 892,-414 898,-414 904,-420 904,-426 904,-426 904,-568 904,-568 904,-574 898,-580 892,-580 892,-580 576,-580 576,-580 570,-580 564,-574 564,-568 564,-568 564,-426 564,-426 564,-420 570,-414 576,-414"/>
<text text-anchor="middle" x="734" y="-564.8" font-family="Times,serif" font-size="14.00" fill="#000000">Administrator</text>
<polyline fill="none" stroke="#000000" points="564,-557 904,-557 "/>
<text text-anchor="start" x="572" y="-541.8" font-family="Times,serif" font-size="14.00" fill="#000000">id :bigint</text>
<text text-anchor="start" x="572" y="-526.8" font-family="Times,serif" font-size="14.00" fill="#000000">email :character varying</text>
<text text-anchor="start" x="572" y="-511.8" font-family="Times,serif" font-size="14.00" fill="#000000">password_digest :character varying</text>
<text text-anchor="start" x="572" y="-496.8" font-family="Times,serif" font-size="14.00" fill="#000000">first_name :character varying</text>
<text text-anchor="start" x="572" y="-481.8" font-family="Times,serif" font-size="14.00" fill="#000000">last_name :character varying</text>
<text text-anchor="start" x="572" y="-466.8" font-family="Times,serif" font-size="14.00" fill="#000000">remember_token :character varying</text>
<text text-anchor="start" x="572" y="-451.8" font-family="Times,serif" font-size="14.00" fill="#000000">remember_token_expires_at :timestamp without time zone</text>
<text text-anchor="start" x="572" y="-436.8" font-family="Times,serif" font-size="14.00" fill="#000000">created_at :timestamp without time zone</text>
<text text-anchor="start" x="572" y="-421.8" font-family="Times,serif" font-size="14.00" fill="#000000">updated_at :timestamp without time zone</text>
</g>
<!-- Stores::Paypal -->
<!-- <g id="node4" class="node">
<title>Stores::Paypal</title>
<polygon fill="none" stroke="#000000" points="922.5,-474 922.5,-520 1017.5,-520 1017.5,-474 922.5,-474"/>
<text text-anchor="middle" x="970" y="-504.8" font-family="Times,serif" font-size="14.00" fill="#000000">Stores::Paypal</text>
<polyline fill="none" stroke="#000000" points="922.5,-497 1017.5,-497 "/>
<text text-anchor="middle" x="970" y="-481.8" font-family="Times,serif" font-size="14.00" fill="#000000"> </text>
</g> -->
<!-- User -->
<g id="node5" class="node">
<title>User</title>
<path fill="none" stroke="#000000" d="M244.5,-391.5C244.5,-391.5 533.5,-391.5 533.5,-391.5 539.5,-391.5 545.5,-397.5 545.5,-403.5 545.5,-403.5 545.5,-590.5 545.5,-590.5 545.5,-596.5 539.5,-602.5 533.5,-602.5 533.5,-602.5 244.5,-602.5 244.5,-602.5 238.5,-602.5 232.5,-596.5 232.5,-590.5 232.5,-590.5 232.5,-403.5 232.5,-403.5 232.5,-397.5 238.5,-391.5 244.5,-391.5"/>
<text text-anchor="middle" x="389" y="-587.3" font-family="Times,serif" font-size="14.00" fill="#000000">User</text>
<polyline fill="none" stroke="#000000" points="232.5,-579.5 545.5,-579.5 "/>
<text text-anchor="start" x="240.5" y="-564.3" font-family="Times,serif" font-size="14.00" fill="#000000">id :bigint</text>
<text text-anchor="start" x="240.5" y="-549.3" font-family="Times,serif" font-size="14.00" fill="#000000">email :character varying</text>
<text text-anchor="start" x="240.5" y="-534.3" font-family="Times,serif" font-size="14.00" fill="#000000">encrypted_password :character varying</text>
<text text-anchor="start" x="240.5" y="-519.3" font-family="Times,serif" font-size="14.00" fill="#000000">reset_password_token :character varying</text>
<text text-anchor="start" x="240.5" y="-504.3" font-family="Times,serif" font-size="14.00" fill="#000000">reset_password_sent_at :timestamp without time zone</text>
<text text-anchor="start" x="240.5" y="-489.3" font-family="Times,serif" font-size="14.00" fill="#000000">remember_created_at :timestamp without time zone</text>
<text text-anchor="start" x="240.5" y="-474.3" font-family="Times,serif" font-size="14.00" fill="#000000">first_name :character varying</text>
<text text-anchor="start" x="240.5" y="-459.3" font-family="Times,serif" font-size="14.00" fill="#000000">last_name :character varying</text>
<text text-anchor="start" x="240.5" y="-444.3" font-family="Times,serif" font-size="14.00" fill="#000000">created_at :timestamp without time zone</text>
<text text-anchor="start" x="240.5" y="-429.3" font-family="Times,serif" font-size="14.00" fill="#000000">updated_at :timestamp without time zone</text>
<text text-anchor="start" x="240.5" y="-414.3" font-family="Times,serif" font-size="14.00" fill="#000000">provider :character varying</text>
<text text-anchor="start" x="240.5" y="-399.3" font-family="Times,serif" font-size="14.00" fill="#000000">uid :character varying</text>
</g>
<!-- User&#45;&gt;Event -->
<g id="edge2" class="edge">
<title>User&#45;&gt;Event</title>
<path fill="none" stroke="#cc6dec" d="M324.5593,-382.3841C318.1207,-370.9322 311.6684,-359.4559 305.4513,-348.3982"/>
<polygon fill="#cc6dec" stroke="#cc6dec" points="324.7317,-382.6909 325.7101,-393.6131 327.1822,-387.0493 329.6326,-391.4077 329.6326,-391.4077 329.6326,-391.4077 327.1822,-387.0493 333.5552,-389.2023 324.7317,-382.6909 324.7317,-382.6909"/>
<polygon fill="#cc6dec" stroke="#cc6dec" points="305.4215,-348.3451 304.4432,-337.4229 302.9711,-343.9867 300.5206,-339.6283 300.5206,-339.6283 300.5206,-339.6283 302.9711,-343.9867 296.5981,-341.8337 305.4215,-348.3451 305.4215,-348.3451"/>
</g>
<!-- Attend -->
<g id="node9" class="node">
<title>Attend</title>
<path fill="none" stroke="#000000" d="M410,-211C410,-211 630,-211 630,-211 636,-211 642,-217 642,-223 642,-223 642,-305 642,-305 642,-311 636,-317 630,-317 630,-317 410,-317 410,-317 404,-317 398,-311 398,-305 398,-305 398,-223 398,-223 398,-217 404,-211 410,-211"/>
<text text-anchor="middle" x="520" y="-301.8" font-family="Times,serif" font-size="14.00" fill="#000000">Attend</text>
<polyline fill="none" stroke="#000000" points="398,-294 642,-294 "/>
<text text-anchor="start" x="406" y="-278.8" font-family="Times,serif" font-size="14.00" fill="#000000">id :bigint</text>
<text text-anchor="start" x="406" y="-263.8" font-family="Times,serif" font-size="14.00" fill="#000000">event_id :bigint</text>
<text text-anchor="start" x="406" y="-248.8" font-family="Times,serif" font-size="14.00" fill="#000000">user_id :bigint</text>
<text text-anchor="start" x="406" y="-233.8" font-family="Times,serif" font-size="14.00" fill="#000000">created_at :timestamp without time zone</text>
<text text-anchor="start" x="406" y="-218.8" font-family="Times,serif" font-size="14.00" fill="#000000">updated_at :timestamp without time zone</text>
</g>
<!-- User&#45;&gt;Attend -->
<g id="edge1" class="edge">
<title>User&#45;&gt;Attend</title>
<path fill="none" stroke="#9f167e" d="M452.4502,-384.1459C463.6693,-364.1912 474.9687,-344.0938 485.0301,-326.1984"/>
<ellipse fill="none" stroke="#9f167e" cx="450.3277" cy="-387.9209" rx="4" ry="4"/>
<polygon fill="#9f167e" stroke="#9f167e" points="485.2708,-325.7702 494.0942,-319.2589 487.7212,-321.4118 490.1717,-317.0535 490.1717,-317.0535 490.1717,-317.0535 487.7212,-321.4118 486.2491,-314.8481 485.2708,-325.7702 485.2708,-325.7702"/>
</g>
<!-- InShoppingCart -->
<g id="node6" class="node">
<title>InShoppingCart</title>
<path fill="none" stroke="#000000" d="M898,-203.5C898,-203.5 1118,-203.5 1118,-203.5 1124,-203.5 1130,-209.5 1130,-215.5 1130,-215.5 1130,-312.5 1130,-312.5 1130,-318.5 1124,-324.5 1118,-324.5 1118,-324.5 898,-324.5 898,-324.5 892,-324.5 886,-318.5 886,-312.5 886,-312.5 886,-215.5 886,-215.5 886,-209.5 892,-203.5 898,-203.5"/>
<text text-anchor="middle" x="1008" y="-309.3" font-family="Times,serif" font-size="14.00" fill="#000000">InShoppingCart</text>
<polyline fill="none" stroke="#000000" points="886,-301.5 1130,-301.5 "/>
<text text-anchor="start" x="894" y="-286.3" font-family="Times,serif" font-size="14.00" fill="#000000">id :bigint</text>
<text text-anchor="start" x="894" y="-271.3" font-family="Times,serif" font-size="14.00" fill="#000000">shopping_cart_id :bigint</text>
<text text-anchor="start" x="894" y="-256.3" font-family="Times,serif" font-size="14.00" fill="#000000">product_id :bigint</text>
<text text-anchor="start" x="894" y="-241.3" font-family="Times,serif" font-size="14.00" fill="#000000">quantity :integer</text>
<text text-anchor="start" x="894" y="-226.3" font-family="Times,serif" font-size="14.00" fill="#000000">created_at :timestamp without time zone</text>
<text text-anchor="start" x="894" y="-211.3" font-family="Times,serif" font-size="14.00" fill="#000000">updated_at :timestamp without time zone</text>
</g>
<!-- Category -->
<g id="node7" class="node">
<title>Category</title>
<path fill="none" stroke="#000000" d="M1460,-218.5C1460,-218.5 1680,-218.5 1680,-218.5 1686,-218.5 1692,-224.5 1692,-230.5 1692,-230.5 1692,-297.5 1692,-297.5 1692,-303.5 1686,-309.5 1680,-309.5 1680,-309.5 1460,-309.5 1460,-309.5 1454,-309.5 1448,-303.5 1448,-297.5 1448,-297.5 1448,-230.5 1448,-230.5 1448,-224.5 1454,-218.5 1460,-218.5"/>
<text text-anchor="middle" x="1570" y="-294.3" font-family="Times,serif" font-size="14.00" fill="#000000">Category</text>
<polyline fill="none" stroke="#000000" points="1448,-286.5 1692,-286.5 "/>
<text text-anchor="start" x="1456" y="-271.3" font-family="Times,serif" font-size="14.00" fill="#000000">id :bigint</text>
<text text-anchor="start" x="1456" y="-256.3" font-family="Times,serif" font-size="14.00" fill="#000000">name :character varying</text>
<text text-anchor="start" x="1456" y="-241.3" font-family="Times,serif" font-size="14.00" fill="#000000">created_at :timestamp without time zone</text>
<text text-anchor="start" x="1456" y="-226.3" font-family="Times,serif" font-size="14.00" fill="#000000">updated_at :timestamp without time zone</text>
</g>
<!-- Product -->
<g id="node10" class="node">
<title>Product</title>
<path fill="none" stroke="#000000" d="M1198,-.5C1198,-.5 1418,-.5 1418,-.5 1424,-.5 1430,-6.5 1430,-12.5 1430,-12.5 1430,-124.5 1430,-124.5 1430,-130.5 1424,-136.5 1418,-136.5 1418,-136.5 1198,-136.5 1198,-136.5 1192,-136.5 1186,-130.5 1186,-124.5 1186,-124.5 1186,-12.5 1186,-12.5 1186,-6.5 1192,-.5 1198,-.5"/>
<text text-anchor="middle" x="1308" y="-121.3" font-family="Times,serif" font-size="14.00" fill="#000000">Product</text>
<polyline fill="none" stroke="#000000" points="1186,-113.5 1430,-113.5 "/>
<text text-anchor="start" x="1194" y="-98.3" font-family="Times,serif" font-size="14.00" fill="#000000">id :bigint</text>
<text text-anchor="start" x="1194" y="-83.3" font-family="Times,serif" font-size="14.00" fill="#000000">name :character varying</text>
<text text-anchor="start" x="1194" y="-68.3" font-family="Times,serif" font-size="14.00" fill="#000000">description :text</text>
<text text-anchor="start" x="1194" y="-53.3" font-family="Times,serif" font-size="14.00" fill="#000000">pricing :integer</text>
<text text-anchor="start" x="1194" y="-38.3" font-family="Times,serif" font-size="14.00" fill="#000000">created_at :timestamp without time zone</text>
<text text-anchor="start" x="1194" y="-23.3" font-family="Times,serif" font-size="14.00" fill="#000000">updated_at :timestamp without time zone</text>
<text text-anchor="start" x="1194" y="-8.3" font-family="Times,serif" font-size="14.00" fill="#000000">category_id :bigint</text>
</g>
<!-- Category&#45;&gt;Product -->
<g id="edge3" class="edge">
<title>Category&#45;&gt;Product</title>
<path fill="none" stroke="#3c3ce1" d="M1502.3074,-213.4889C1473.5002,-191.9935 1439.3158,-166.4857 1407.712,-142.9034"/>
<ellipse fill="none" stroke="#3c3ce1" cx="1505.6974" cy="-216.0185" rx="4" ry="4"/>
<polygon fill="#3c3ce1" stroke="#3c3ce1" points="1407.3216,-142.6121 1401.9981,-133.0251 1403.3143,-139.6219 1399.3069,-136.6317 1399.3069,-136.6317 1399.3069,-136.6317 1403.3143,-139.6219 1396.6157,-140.2383 1407.3216,-142.6121 1407.3216,-142.6121"/>
</g>
<!-- ApplicationRecord -->
<!-- <g id="node8" class="node">
<title>ApplicationRecord</title>
<ellipse fill="none" stroke="#000000" cx="1375" cy="-497" rx="77.1866" ry="18"/>
<text text-anchor="middle" x="1375" y="-493.3" font-family="Times,serif" font-size="14.00" fill="#000000">ApplicationRecord</text>
</g> -->
<!-- ShoppingCart -->
<g id="node11" class="node">
<title>ShoppingCart</title>
<path fill="none" stroke="#000000" d="M1048,-444C1048,-444 1268,-444 1268,-444 1274,-444 1280,-450 1280,-456 1280,-456 1280,-538 1280,-538 1280,-544 1274,-550 1268,-550 1268,-550 1048,-550 1048,-550 1042,-550 1036,-544 1036,-538 1036,-538 1036,-456 1036,-456 1036,-450 1042,-444 1048,-444"/>
<text text-anchor="middle" x="1158" y="-534.8" font-family="Times,serif" font-size="14.00" fill="#000000">ShoppingCart</text>
<polyline fill="none" stroke="#000000" points="1036,-527 1280,-527 "/>
<text text-anchor="start" x="1044" y="-511.8" font-family="Times,serif" font-size="14.00" fill="#000000">id :bigint</text>
<text text-anchor="start" x="1044" y="-496.8" font-family="Times,serif" font-size="14.00" fill="#000000">status :character varying</text>
<text text-anchor="start" x="1044" y="-481.8" font-family="Times,serif" font-size="14.00" fill="#000000">ip :character varying</text>
<text text-anchor="start" x="1044" y="-466.8" font-family="Times,serif" font-size="14.00" fill="#000000">created_at :timestamp without time zone</text>
<text text-anchor="start" x="1044" y="-451.8" font-family="Times,serif" font-size="14.00" fill="#000000">updated_at :timestamp without time zone</text>
</g>
<!-- ShoppingCart&#45;&gt;InShoppingCart -->
<g id="edge4" class="edge">
<title>ShoppingCart&#45;&gt;InShoppingCart</title>
<path fill="none" stroke="#28df55" d="M1119.4133,-437.062C1099.0349,-405.4076 1073.9207,-366.3968 1052.6979,-333.4307"/>
<ellipse fill="none" stroke="#28df55" cx="1121.6097" cy="-440.4738" rx="4" ry="4"/>
<polygon fill="#28df55" stroke="#28df55" points="1052.5209,-333.1557 1050.8915,-322.3115 1049.8143,-328.9516 1047.1078,-324.7474 1047.1078,-324.7474 1047.1078,-324.7474 1049.8143,-328.9516 1043.3241,-327.1833 1052.5209,-333.1557 1052.5209,-333.1557"/>
</g>
<!-- ShoppingCart&#45;&gt;Product -->
<g id="edge5" class="edge">
<title>ShoppingCart&#45;&gt;Product</title>
<path fill="none" stroke="#77a31f" d="M1147.1764,-433.7258C1138.6649,-365.3657 1134.4089,-255.208 1177,-173 1182.3846,-162.6067 1189.3126,-152.8991 1197.1656,-143.9184"/>
<polygon fill="#77a31f" stroke="#77a31f" points="1147.2122,-433.9989 1144.0535,-444.5 1147.8637,-438.9563 1148.5151,-443.9137 1148.5151,-443.9137 1148.5151,-443.9137 1147.8637,-438.9563 1152.9768,-443.3274 1147.2122,-433.9989 1147.2122,-433.9989"/>
<polygon fill="#77a31f" stroke="#77a31f" points="1197.1857,-143.8966 1207.2738,-139.5977 1200.576,-140.2216 1203.9662,-136.5465 1203.9662,-136.5465 1203.9662,-136.5465 1200.576,-140.2216 1200.6587,-133.4952 1197.1857,-143.8966 1197.1857,-143.8966"/>
</g>
<!-- MyPayment -->
<g id="node12" class="node">
<title>MyPayment</title>
<path fill="none" stroke="#000000" d="M1198,-173.5C1198,-173.5 1418,-173.5 1418,-173.5 1424,-173.5 1430,-179.5 1430,-185.5 1430,-185.5 1430,-342.5 1430,-342.5 1430,-348.5 1424,-354.5 1418,-354.5 1418,-354.5 1198,-354.5 1198,-354.5 1192,-354.5 1186,-348.5 1186,-342.5 1186,-342.5 1186,-185.5 1186,-185.5 1186,-179.5 1192,-173.5 1198,-173.5"/>
<text text-anchor="middle" x="1308" y="-339.3" font-family="Times,serif" font-size="14.00" fill="#000000">MyPayment</text>
<polyline fill="none" stroke="#000000" points="1186,-331.5 1430,-331.5 "/>
<text text-anchor="start" x="1194" y="-316.3" font-family="Times,serif" font-size="14.00" fill="#000000">id :bigint</text>
<text text-anchor="start" x="1194" y="-301.3" font-family="Times,serif" font-size="14.00" fill="#000000">email :character varying</text>
<text text-anchor="start" x="1194" y="-286.3" font-family="Times,serif" font-size="14.00" fill="#000000">ip :character varying</text>
<text text-anchor="start" x="1194" y="-271.3" font-family="Times,serif" font-size="14.00" fill="#000000">status :character varying</text>
<text text-anchor="start" x="1194" y="-256.3" font-family="Times,serif" font-size="14.00" fill="#000000">fee :numeric(6,2)</text>
<text text-anchor="start" x="1194" y="-241.3" font-family="Times,serif" font-size="14.00" fill="#000000">paypal_id :character varying</text>
<text text-anchor="start" x="1194" y="-226.3" font-family="Times,serif" font-size="14.00" fill="#000000">total :numeric(8,2)</text>
<text text-anchor="start" x="1194" y="-211.3" font-family="Times,serif" font-size="14.00" fill="#000000">shopping_cart_id :bigint</text>
<text text-anchor="start" x="1194" y="-196.3" font-family="Times,serif" font-size="14.00" fill="#000000">created_at :timestamp without time zone</text>
<text text-anchor="start" x="1194" y="-181.3" font-family="Times,serif" font-size="14.00" fill="#000000">updated_at :timestamp without time zone</text>
</g>
<!-- ShoppingCart&#45;&gt;MyPayment -->
<g id="edge6" class="edge">
<title>ShoppingCart&#45;&gt;MyPayment</title>
<path fill="none" stroke="#60ad86" d="M1196.6792,-436.9183C1211.1267,-414.4766 1227.9446,-388.3527 1244.0652,-363.3121"/>
<ellipse fill="none" stroke="#60ad86" cx="1194.3903" cy="-440.4738" rx="4" ry="4"/>
<polygon fill="#60ad86" stroke="#60ad86" points="1244.0879,-363.2767 1253.2847,-357.3043 1246.7945,-359.0726 1249.501,-354.8684 1249.501,-354.8684 1249.501,-354.8684 1246.7945,-359.0726 1245.7173,-352.4325 1244.0879,-363.2767 1244.0879,-363.2767"/>
</g>
<!-- MyPayment&#45;&gt;Product -->
<g id="edge7" class="edge">
<title>MyPayment&#45;&gt;Product</title>
<path fill="none" stroke="#938530" d="M1308,-163.2258C1308,-157.7314 1308,-152.2498 1308,-146.8505"/>
<polygon fill="#938530" stroke="#938530" points="1308.0001,-163.4037 1303.5,-173.4037 1308,-168.4037 1308,-173.4037 1308,-173.4037 1308,-173.4037 1308,-168.4037 1312.5,-173.4038 1308.0001,-163.4037 1308.0001,-163.4037"/>
<polygon fill="#938530" stroke="#938530" points="1308.0001,-146.587 1312.5,-136.5869 1308,-141.587 1308,-136.587 1308,-136.587 1308,-136.587 1308,-141.587 1303.5,-136.587 1308.0001,-146.587 1308.0001,-146.587"/>
</g>
</g>
</svg>
